<svg xmlns="http://www.w3.org/2000/svg" width="40.883" height="35.498" viewBox="0 0 40.883 35.498"><path d="M53.418,69.438A2.732,2.732,0,1,0,50.6,66.622,2.716,2.716,0,0,0,53.418,69.438Zm19.8,16.383h-.768l-5.418-10.5a7.886,7.886,0,0,0,2.219-.683A1.661,1.661,0,0,0,69.716,72l-.043-.043a1.624,1.624,0,0,0-1.835-.341,6.078,6.078,0,0,1-2.261.555c-2.389,0-3.456-2.731-12.245-2.731s-9.856,2.731-12.245,2.731a5.2,5.2,0,0,1-2.261-.555,1.7,1.7,0,0,0-1.835.341L36.949,72a1.665,1.665,0,0,0,.469,2.645,6.708,6.708,0,0,0,2.219.683l-5.418,10.5H33.45a.562.562,0,0,0-.555.64c.469,2.731,3.925,4.821,8.149,4.821s7.68-2.091,8.149-4.821a.562.562,0,0,0-.555-.64h-.768L42.453,75.368c3.541-.3,5.418-2.091,8.149-2.091V94.013a2.75,2.75,0,0,0-2.731,2.731H44.842a2.71,2.71,0,0,0-2.432,2.731H64.254a2.828,2.828,0,0,0-3.029-2.731H58.793a2.75,2.75,0,0,0-2.731-2.731V73.278c2.731,0,4.608,1.792,8.149,2.091L58.793,85.821h-.768a.562.562,0,0,0-.555.64c.469,2.731,3.925,4.821,8.149,4.821s7.68-2.091,8.149-4.821A.562.562,0,0,0,73.214,85.821Zm-28.074,0H36.949l4.1-7.68Zm16.383,0,4.1-7.68,4.1,7.68Z" transform="translate(-32.891 -63.976)" fill="#878787"/></svg>