<svg xmlns="http://www.w3.org/2000/svg" width="47.695" height="47.695" viewBox="0 0 47.695 47.695"><path d="M0,0H47.695V47.695H0Z" fill="none"/><path d="M6,9.975H9.975V6A3.973,3.973,0,0,0,6,9.975Zm0,15.9H9.975V21.9H6Zm7.949,15.9h3.975V37.8H13.949ZM6,17.924H9.975V13.949H6ZM25.873,6H21.9V9.975h3.975ZM37.8,6V9.975h3.975A3.973,3.973,0,0,0,37.8,6ZM9.975,41.771V37.8H6A3.973,3.973,0,0,0,9.975,41.771ZM6,33.822H9.975V29.847H6ZM17.924,6H13.949V9.975h3.975ZM21.9,41.771h3.975V37.8H21.9Zm15.9-15.9h3.975V21.9H37.8Zm0,15.9A3.973,3.973,0,0,0,41.771,37.8H37.8Zm0-23.847h3.975V13.949H37.8Zm0,15.9h3.975V29.847H37.8Zm-7.949,7.949h3.975V37.8H29.847Zm0-31.8h3.975V6H29.847Zm-15.9,23.847H33.822V13.949H13.949Zm3.975-15.9H29.847V29.847H17.924Z" transform="translate(-0.038 -0.038)" fill="#878787"/></svg>