<svg xmlns="http://www.w3.org/2000/svg" xmlns:xlink="http://www.w3.org/1999/xlink" width="34" height="39" viewBox="0 0 34 39"><defs><clipPath id="b"><use xlink:href="#a"/></clipPath><clipPath id="d"><use xlink:href="#c"/></clipPath><clipPath id="f"><use xlink:href="#e"/></clipPath><clipPath id="h"><use xlink:href="#g"/></clipPath></defs><g transform="translate(-623 -1610)"><g transform="translate(0 138)"><g transform="translate(623 1472)" fill="none" stroke="#878787" stroke-width="3"><rect width="34" height="39" rx="1" stroke="none"/><rect x="1.5" y="1.5" width="31" height="36" rx="0.5" fill="none"/></g><g transform="translate(630 1481)" fill="none" stroke="#878787" stroke-width="3"><rect id="a" width="21" height="2" rx="1" stroke="none"/><path d="M0,0.5h21M19.5,0v2M21,1.5h-21M1.5,2v-2" fill="none" clip-path="url(#b)"/></g><g transform="translate(630 1485)" fill="none" stroke="#878787" stroke-width="3"><rect id="c" width="21" height="2" rx="1" stroke="none"/><path d="M0,0.5h21M19.5,0v2M21,1.5h-21M1.5,2v-2" fill="none" clip-path="url(#d)"/></g><g transform="translate(630 1489)" fill="none" stroke="#878787" stroke-width="3"><rect id="e" width="21" height="2" rx="1" stroke="none"/><path d="M0,0.5h21M19.5,0v2M21,1.5h-21M1.5,2v-2" fill="none" clip-path="url(#f)"/></g><g transform="translate(630 1493)" fill="none" stroke="#878787" stroke-width="3"><rect id="g" width="21" height="2" rx="1" stroke="none"/><path d="M0,0.5h21M19.5,0v2M21,1.5h-21M1.5,2v-2" fill="none" clip-path="url(#h)"/></g></g></g></svg>