<svg xmlns="http://www.w3.org/2000/svg" width="25.266" height="29.476" viewBox="0 0 25.266 29.476"><g transform="translate(-403.867 -1343.523)"><path d="M65.474,61.476H87.792a1.467,1.467,0,0,0,1.474-1.454V46.08a1.458,1.458,0,0,0-1.474-1.448H86.371V42.6a11.6,11.6,0,0,0-2.8-7.593A9.568,9.568,0,0,0,76.639,32h-.013A9.587,9.587,0,0,0,69.7,35a11.6,11.6,0,0,0-2.8,7.593v2.04H65.474A1.462,1.462,0,0,0,64,46.08V60.022A1.463,1.463,0,0,0,65.474,61.476ZM70.382,42.6a8.239,8.239,0,0,1,1.849-5.283h0V37.3a6.1,6.1,0,0,1,4.4-1.941h.013a6.1,6.1,0,0,1,4.4,1.941v.013l-.007.007A8.2,8.2,0,0,1,82.877,42.6v2.033H70.382Z" transform="translate(339.867 1311.523)" fill="#878787"/><circle cx="2.5" cy="2.5" r="2.5" transform="translate(414 1360)" fill="#111"/><rect width="3" height="5" transform="translate(415 1364)" fill="#0f0f0f"/><rect width="6" height="6" transform="translate(426.997 1350.15) rotate(90)" fill="#1d1d1d"/></g></svg>